<svg width="900" height="620" viewBox="0 0 900 620" fill="none" xmlns="http://www.w3.org/2000/svg">
  <rect width="900" height="620" fill="#F6F7F9"/>
  <rect x="54" y="50" width="792" height="520" rx="22" fill="white" stroke="#DDE4F0" stroke-width="2"/>
  <rect x="90" y="92" width="260" height="20" rx="10" fill="#111827"/>
  <rect x="90" y="130" width="390" height="12" rx="6" fill="#94A3B8"/>
  <rect x="668" y="92" width="154" height="42" rx="12" fill="#111827"/>
  <rect x="90" y="184" width="238" height="182" rx="16" fill="#FFFFFF" stroke="#DDE4F0"/>
  <rect x="122" y="220" width="132" height="14" rx="7" fill="#111827"/>
  <rect x="122" y="250" width="178" height="10" rx="5" fill="#CBD5E1"/>
  <rect x="122" y="278" width="108" height="24" rx="12" fill="#FEF3C7"/>
  <rect x="122" y="326" width="176" height="8" rx="4" fill="#E2E8F0"/>
  <rect x="122" y="326" width="128" height="8" rx="4" fill="#111827"/>
  <rect x="358" y="184" width="238" height="182" rx="16" fill="#FFFFFF" stroke="#DDE4F0"/>
  <rect x="390" y="220" width="156" height="14" rx="7" fill="#111827"/>
  <rect x="390" y="250" width="164" height="10" rx="5" fill="#CBD5E1"/>
  <rect x="390" y="278" width="76" height="24" rx="12" fill="#DCFCE7"/>
  <rect x="390" y="326" width="176" height="8" rx="4" fill="#E2E8F0"/>
  <rect x="390" y="326" width="176" height="8" rx="4" fill="#111827"/>
  <rect x="626" y="184" width="196" height="182" rx="16" fill="#111827"/>
  <rect x="658" y="220" width="106" height="12" rx="6" fill="#F9FAFB"/>
  <rect x="658" y="252" width="136" height="10" rx="5" fill="#CBD5E1"/>
  <rect x="658" y="286" width="86" height="32" rx="10" fill="#F9FAFB"/>
  <rect x="90" y="406" width="732" height="106" rx="16" fill="#F8FAFC" stroke="#DDE4F0"/>
  <rect x="122" y="440" width="120" height="14" rx="7" fill="#111827"/>
  <rect x="122" y="472" width="620" height="10" rx="5" fill="#CBD5E1"/>
  <rect x="122" y="494" width="470" height="10" rx="5" fill="#CBD5E1"/>
</svg>
