<svg width="320" height="320" viewBox="0 0 320 320" fill="none" xmlns="http://www.w3.org/2000/svg">
  <rect width="320" height="320" rx="72" fill="#111827"/>
  <rect x="72" y="58" width="134" height="184" rx="22" fill="#F8FAFC"/>
  <path d="M170 58L206 94H180C174.477 94 170 89.5228 170 84V58Z" fill="#CBD5E1"/>
  <rect x="96" y="108" width="84" height="10" rx="5" fill="#111827"/>
  <rect x="96" y="136" width="72" height="8" rx="4" fill="#94A3B8"/>
  <rect x="96" y="160" width="86" height="8" rx="4" fill="#94A3B8"/>
  <rect x="96" y="184" width="58" height="8" rx="4" fill="#94A3B8"/>
  <rect x="168" y="172" width="86" height="86" rx="18" fill="#D7E3F4" stroke="#F8FAFC" stroke-width="8"/>
  <rect x="188" y="192" width="18" height="18" rx="3" fill="#111827"/>
  <rect x="218" y="192" width="18" height="18" rx="3" fill="#111827"/>
  <rect x="188" y="222" width="18" height="18" rx="3" fill="#111827"/>
  <rect x="218" y="222" width="18" height="18" rx="3" fill="#111827"/>
  <path d="M88 262H206" stroke="#F8FAFC" stroke-width="12" stroke-linecap="round"/>
  <path d="M88 282H176" stroke="#94A3B8" stroke-width="8" stroke-linecap="round"/>
</svg>
