<svg width="720" height="720" viewBox="0 0 720 720" fill="none" xmlns="http://www.w3.org/2000/svg">
  <rect width="720" height="720" fill="#F6F7F9"/>
  <rect x="160" y="62" width="420" height="596" rx="18" fill="white" stroke="#DDE4F0" stroke-width="2"/>
  <rect x="204" y="108" width="172" height="18" rx="9" fill="#111827"/>
  <rect x="204" y="146" width="286" height="10" rx="5" fill="#94A3B8"/>
  <rect x="204" y="180" width="332" height="78" rx="14" fill="#F8FAFC" stroke="#DDE4F0"/>
  <rect x="228" y="208" width="86" height="10" rx="5" fill="#111827"/>
  <rect x="228" y="232" width="264" height="8" rx="4" fill="#CBD5E1"/>
  <rect x="204" y="292" width="332" height="134" rx="14" fill="white" stroke="#DDE4F0"/>
  <rect x="228" y="324" width="116" height="10" rx="5" fill="#111827"/>
  <rect x="228" y="354" width="242" height="8" rx="4" fill="#CBD5E1"/>
  <rect x="228" y="376" width="274" height="8" rx="4" fill="#CBD5E1"/>
  <rect x="228" y="398" width="210" height="8" rx="4" fill="#CBD5E1"/>
  <rect x="204" y="460" width="154" height="108" rx="14" fill="#111827"/>
  <rect x="230" y="486" width="38" height="38" rx="6" fill="#F9FAFB"/>
  <rect x="282" y="486" width="38" height="38" rx="6" fill="#CBD5E1"/>
  <rect x="230" y="538" width="38" height="38" rx="6" fill="#CBD5E1"/>
  <rect x="282" y="538" width="38" height="38" rx="6" fill="#F9FAFB"/>
  <rect x="384" y="460" width="152" height="108" rx="14" fill="#F8FAFC" stroke="#DDE4F0"/>
  <rect x="408" y="492" width="92" height="10" rx="5" fill="#111827"/>
  <rect x="408" y="520" width="108" height="8" rx="4" fill="#CBD5E1"/>
  <rect x="408" y="542" width="76" height="8" rx="4" fill="#CBD5E1"/>
  <rect x="204" y="604" width="332" height="10" rx="5" fill="#CBD5E1"/>
</svg>
