<svg width="720" height="720" viewBox="0 0 720 720" fill="none" xmlns="http://www.w3.org/2000/svg">
  <rect width="720" height="720" fill="#F6F7F9"/>
  <rect x="190" y="50" width="340" height="620" rx="34" fill="white" stroke="#DDE4F0" stroke-width="2"/>
  <rect x="226" y="96" width="112" height="14" rx="7" fill="#111827"/>
  <rect x="226" y="126" width="206" height="10" rx="5" fill="#94A3B8"/>
  <rect x="226" y="164" width="268" height="182" rx="18" fill="#111827"/>
  <circle cx="360" cy="246" r="54" fill="#F8FAFC"/>
  <path d="M315 296C331 268 389 268 405 296" stroke="#CBD5E1" stroke-width="10" stroke-linecap="round"/>
  <rect x="226" y="382" width="268" height="96" rx="16" fill="#F8FAFC" stroke="#DDE4F0"/>
  <rect x="250" y="410" width="82" height="10" rx="5" fill="#111827"/>
  <rect x="250" y="434" width="196" height="8" rx="4" fill="#CBD5E1"/>
  <rect x="250" y="454" width="156" height="8" rx="4" fill="#CBD5E1"/>
  <rect x="226" y="510" width="76" height="76" rx="10" fill="#111827"/>
  <rect x="242" y="526" width="18" height="18" fill="white"/>
  <rect x="274" y="526" width="10" height="10" fill="white"/>
  <rect x="242" y="558" width="10" height="10" fill="white"/>
  <rect x="274" y="558" width="18" height="18" fill="white"/>
  <rect x="322" y="518" width="172" height="12" rx="6" fill="#111827"/>
  <rect x="322" y="548" width="132" height="10" rx="5" fill="#CBD5E1"/>
  <rect x="322" y="574" width="156" height="10" rx="5" fill="#CBD5E1"/>
  <rect x="226" y="614" width="268" height="10" rx="5" fill="#CBD5E1"/>
</svg>
